<?xml version="1.0" standalone="no"?><!DOCTYPE svg PUBLIC "-//W3C//DTD SVG 1.1//EN" "http://www.w3.org/Graphics/SVG/1.1/DTD/svg11.dtd"><svg t="1719541087114" class="icon" viewBox="0 0 1154 1024" version="1.1" xmlns="http://www.w3.org/2000/svg" p-id="24856" xmlns:xlink="http://www.w3.org/1999/xlink" width="225.390625" height="200"><path d="M375.619731 988.04167a62.238289 62.238289 0 0 1-17.378682-45.848638 51.429596 51.429596 0 0 1 1.13032-11.585788c12.504174-52.913142 37.936392-149.626216 68.949569-243.230907q17.096102-52.136047 81.595033-308.153709a709.205657 709.205657 0 0 0 28.25802-205.577095c-12.786754-44.930252-72.057951-34.68672-107.097896-29.035116s-131.399793 22.959641-166.157157 22.959642c-12.998689 0-11.091273-12.645464-7.770956-17.378683A309.566609 309.566609 0 0 1 428.320938 32.920593a773.563298 773.563298 0 0 1 504.546947 20.063195l7.064505-17.166748 92.333081 39.208003-81.029873 190.741635-92.121145-39.137358 7.064505-17.449327q-131.117213-58.140876-170.819731 19.356744a1225.832908 1225.832908 0 0 0-45.071542 194.203242q-48.391859 279.542463-79.405036 427.331908a1152.291411 1152.291411 0 0 1-37.724457 150.332666c-4.803863 12.362884-19.144809 23.030286-48.250569 23.030287a217.162884 217.162884 0 0 1-109.287892-35.39317z" p-id="24857" fill="#ffffff"></path><path d="M0 586.14198V490.135357l210.098379-152.663953 58.917971 81.100517-162.483615 118.259814 169.54812 114.444981-56.092169 83.149224-219.918041-148.354605z m1153.492377-100.386616v96.006623l-210.098379 152.663953-58.988617-81.100517 162.483615-118.259814-169.54812-114.444981 56.51604-83.149224 219.847396 148.354605z" p-id="24858" fill="#ffffff"></path></svg>